<svg width="371" height="324" viewBox="0 0 371 324" fill="none" xmlns="http://www.w3.org/2000/svg">
<path fill-rule="evenodd" clip-rule="evenodd" d="M0.0626406 0.0626406C26.3976 -0.104359 52.7316 0.0626406 79.0626 0.562641C89.3716 11.2046 100.039 21.5376 111.063 31.5626C121.799 39.6826 132.965 47.1826 144.563 54.0626C148.319 64.5576 144.819 70.8906 134.063 73.0626C121.991 69.6936 110.991 64.1936 101.063 56.5626C97.3026 55.3866 94.4696 56.5526 92.5626 60.0626C92.2296 91.3956 91.8956 122.73 91.5626 154.063C89.2686 160.497 84.7686 162.997 78.0626 161.563C74.8956 159.73 72.3956 157.23 70.5626 154.063C70.2296 137.73 69.8956 121.396 69.5626 105.063C68.6066 103.984 67.7736 102.818 67.0626 101.563C47.9536 99.6076 29.2866 95.6076 11.0626 89.5626C4.90264 87.0756 1.40264 82.5756 0.562641 76.0626C0.0626406 50.7316 -0.104359 25.3986 0.0626406 0.0626406Z" fill="white"/>
<path fill-rule="evenodd" clip-rule="evenodd" d="M138.063 97.0626C145.73 97.0626 153.396 97.0626 161.063 97.0626C161.063 103.063 161.063 109.063 161.063 115.063C153.915 116.055 146.582 116.388 139.063 116.063C139.063 123.396 139.063 130.73 139.063 138.063C132.73 138.063 126.396 138.063 120.063 138.063C119.897 129.39 120.063 120.723 120.563 112.063C123.839 103.945 129.673 98.9446 138.063 97.0626Z" fill="white"/>
<path fill-rule="evenodd" clip-rule="evenodd" d="M250.063 138.063C244.063 138.063 238.063 138.063 232.063 138.063C232.387 131.209 232.054 124.542 231.063 118.063C230.61 117.105 229.944 116.271 229.063 115.563C222.071 115.063 215.071 114.897 208.063 115.063C208.063 108.73 208.063 102.396 208.063 96.0626C241.173 91.1726 255.173 105.173 250.063 138.063Z" fill="white"/>
<path fill-rule="evenodd" clip-rule="evenodd" d="M181.063 150.063C194.531 150.193 198.865 156.526 194.063 169.063C188.665 173.946 182.998 174.279 177.063 170.063C172.097 162.043 173.43 155.377 181.063 150.063Z" fill="white"/>
<path fill-rule="evenodd" clip-rule="evenodd" d="M284.063 162.063C290.828 161.032 295.995 163.365 299.563 169.063C299.896 185.396 300.23 201.73 300.563 218.063C301.348 219.849 302.514 221.349 304.063 222.563C318.17 224.055 332.17 226.389 346.063 229.563C352.025 231.108 357.692 233.441 363.063 236.563C366.888 239.051 369.055 242.551 369.563 247.063C370.063 272.394 370.23 297.727 370.063 323.063C343.394 323.23 316.728 323.063 290.063 322.563C271.49 300.31 249.657 282.143 224.563 268.063C222.405 251.846 229.238 246.68 245.063 252.563C253.023 255.875 260.357 260.208 267.063 265.563C270.556 266.567 273.722 266.067 276.563 264.063C276.896 233.396 277.23 202.73 277.563 172.063C278.375 167.769 280 163.5 284.063 162.063Z" fill="white"/>
<path fill-rule="evenodd" clip-rule="evenodd" d="M120.063 185.063C126.396 185.063 132.73 185.063 139.063 185.063C138.897 192.404 139.063 199.737 139.563 207.063C146.976 208.044 154.476 208.377 162.063 208.063C162.063 214.396 162.063 220.73 162.063 227.063C128.49 232.613 114.49 218.613 120.063 185.063Z" fill="white"/>
<path fill-rule="evenodd" clip-rule="evenodd" d="M231.063 185.063C237.396 185.063 243.73 185.063 250.063 185.063C250.229 193.403 250.063 201.736 249.563 210.063C247.396 218.896 241.896 224.396 233.063 226.563C224.736 227.063 216.403 227.229 208.063 227.063C208.063 220.73 208.063 214.396 208.063 208.063C215.404 208.229 222.737 208.063 230.063 207.563C231.044 200.15 231.377 192.65 231.063 185.063Z" fill="white"/>
</svg>
